<svg width="20" height="20" viewBox="0 0 20 20" fill="none" xmlns="http://www.w3.org/2000/svg">
<path d="M9.99994 12.4622C11.3601 12.4622 12.4627 11.3596 12.4627 9.99946C12.4627 8.63933 11.3601 7.53672 9.99994 7.53672C8.6398 7.53672 7.53719 8.63933 7.53719 9.99946C7.53719 11.3596 8.6398 12.4622 9.99994 12.4622Z" fill="#565656"/>
<path d="M19.876 9.6875C19.6956 9.49666 15.4049 4.99854 9.99875 4.99854C4.59318 4.99854 0.303038 9.49666 0.123141 9.6875C0.0440626 9.77194 6.10352e-05 9.8833 6.10352e-05 9.99899C6.10352e-05 10.1147 0.0440626 10.226 0.123141 10.3105C0.303751 10.5013 4.59401 15.0015 9.99875 15.0015C15.4049 15.0015 19.697 10.5013 19.876 10.3105C19.9556 10.2263 20 10.1148 20 9.99899C20 9.88313 19.9556 9.77167 19.876 9.6875V9.6875ZM9.99994 13.8067C7.90127 13.8067 6.19392 12.099 6.19392 9.99863C6.19392 7.89996 7.90127 6.19131 9.99994 6.19131C12.0985 6.19131 13.8082 7.89937 13.8082 9.99863C13.8077 12.0978 12.0985 13.8067 9.99994 13.8067ZM6.98192 6.40452C5.95335 7.27009 5.28421 8.55137 5.28421 9.99863C5.28421 11.4453 5.95335 12.7267 6.98192 13.5938C4.13594 12.6785 1.90104 10.7526 1.10222 9.99863C1.90116 9.2455 4.13654 7.31935 6.98192 6.40452V6.40452ZM13.0194 13.5924C14.0472 12.7262 14.7172 11.4446 14.7172 9.99863C14.7172 8.55268 14.0478 7.27199 13.0186 6.40583C15.8644 7.32113 18.0976 9.24466 18.8969 9.99863C18.0975 10.7519 15.8643 12.6758 13.0194 13.5924V13.5924Z" fill="#565656"/>
</svg>
