<svg width="23" height="14" viewBox="0 0 23 14" fill="none" xmlns="http://www.w3.org/2000/svg">
<path d="M5.904 1.786L1.53 12.658C1.482 12.778 1.416 12.868 1.332 12.928C1.248 12.988 1.152 13.018 1.044 13.018C0.876 13.018 0.75 12.976 0.666 12.892C0.582 12.796 0.534 12.682 0.522 12.55C0.51 12.49 0.516 12.418 0.54 12.334L5.292 0.705999C5.352 0.574 5.424 0.484 5.508 0.436C5.604 0.376 5.712 0.346 5.832 0.346C5.952 0.346 6.054 0.382 6.138 0.454C6.234 0.513999 6.306 0.597999 6.354 0.705999L11.088 12.28C11.112 12.352 11.124 12.424 11.124 12.496C11.124 12.664 11.07 12.796 10.962 12.892C10.854 12.976 10.728 13.018 10.584 13.018C10.464 13.018 10.356 12.988 10.26 12.928C10.176 12.856 10.11 12.766 10.062 12.658L5.58 1.714L5.904 1.786ZM2.574 9.364L3.024 8.302H8.604L8.82 9.364H2.574ZM22.3463 13.072C22.1903 13.072 22.0583 13.006 21.9503 12.874L16.8383 6.448L17.6843 5.602L22.8323 12.118C22.9163 12.238 22.9583 12.364 22.9583 12.496C22.9583 12.688 22.8863 12.832 22.7423 12.928C22.6103 13.024 22.4783 13.072 22.3463 13.072ZM22.1483 0.436C22.2923 0.436 22.4123 0.49 22.5083 0.598C22.6163 0.706 22.6703 0.826 22.6703 0.957999C22.6703 1.102 22.6163 1.228 22.5083 1.336L14.3363 8.986L14.1923 7.762L21.7523 0.616C21.8723 0.496 22.0043 0.436 22.1483 0.436ZM13.9043 13C13.7363 13 13.5983 12.946 13.4903 12.838C13.3943 12.73 13.3463 12.598 13.3463 12.442V0.957999C13.3463 0.801999 13.4003 0.669999 13.5083 0.561999C13.6163 0.453999 13.7543 0.399999 13.9223 0.399999C14.0783 0.399999 14.2103 0.453999 14.3183 0.561999C14.4263 0.669999 14.4803 0.801999 14.4803 0.957999V12.442C14.4683 12.598 14.4083 12.73 14.3003 12.838C14.1923 12.946 14.0603 13 13.9043 13Z" fill="white"/>
</svg>
